<mxfile host="65bd71144e">
    <diagram id="MdiE8y3Z-AQuQJzAofxp" name="Page-1">
        <mxGraphModel dx="868" dy="470" grid="1" gridSize="10" guides="1" tooltips="1" connect="1" arrows="1" fold="1" page="1" pageScale="1" pageWidth="850" pageHeight="1100" math="0" shadow="0">
            <root>
                <mxCell id="0"/>
                <mxCell id="1" parent="0"/>
                <mxCell id="2" value="" style="shape=internalStorage;whiteSpace=wrap;html=1;backgroundOutline=1;dx=220;dy=60;" vertex="1" parent="1">
                    <mxGeometry x="340" y="640" width="430" height="450" as="geometry"/>
                </mxCell>
                <mxCell id="3" value="Atrributes" style="text;html=1;strokeColor=none;fillColor=none;align=center;verticalAlign=middle;whiteSpace=wrap;rounded=0;" vertex="1" parent="1">
                    <mxGeometry x="415" y="660" width="60" height="30" as="geometry"/>
                </mxCell>
                <mxCell id="4" value="Methods" style="text;html=1;strokeColor=none;fillColor=none;align=center;verticalAlign=middle;whiteSpace=wrap;rounded=0;" vertex="1" parent="1">
                    <mxGeometry x="620" y="660" width="55" height="30" as="geometry"/>
                </mxCell>
                <mxCell id="5" value="" style="endArrow=none;html=1;" edge="1" parent="1" target="2">
                    <mxGeometry width="50" height="50" relative="1" as="geometry">
                        <mxPoint x="340" y="890" as="sourcePoint"/>
                        <mxPoint x="390" y="840" as="targetPoint"/>
                        <Array as="points">
                            <mxPoint x="770" y="890"/>
                        </Array>
                    </mxGeometry>
                </mxCell>
                <mxCell id="6" value="" style="endArrow=none;html=1;" edge="1" parent="1">
                    <mxGeometry width="50" height="50" relative="1" as="geometry">
                        <mxPoint x="340" y="920" as="sourcePoint"/>
                        <mxPoint x="770" y="920" as="targetPoint"/>
                        <Array as="points">
                            <mxPoint x="770" y="920"/>
                        </Array>
                    </mxGeometry>
                </mxCell>
                <mxCell id="7" value="Responsibi;ity" style="text;html=1;strokeColor=none;fillColor=none;align=center;verticalAlign=middle;whiteSpace=wrap;rounded=0;" vertex="1" parent="1">
                    <mxGeometry x="387.5" y="890" width="115" height="30" as="geometry"/>
                </mxCell>
                <mxCell id="8" value="Collaborator" style="text;html=1;strokeColor=none;fillColor=none;align=center;verticalAlign=middle;whiteSpace=wrap;rounded=0;" vertex="1" parent="1">
                    <mxGeometry x="620" y="890" width="115" height="30" as="geometry"/>
                </mxCell>
                <mxCell id="9" value="+Text" style="text;html=1;strokeColor=none;fillColor=none;align=center;verticalAlign=middle;whiteSpace=wrap;rounded=0;" vertex="1" parent="1">
                    <mxGeometry x="350" y="710" width="60" height="30" as="geometry"/>
                </mxCell>
                <mxCell id="10" value="+Text" style="text;html=1;strokeColor=none;fillColor=none;align=center;verticalAlign=middle;whiteSpace=wrap;rounded=0;" vertex="1" parent="1">
                    <mxGeometry x="570" y="710" width="60" height="30" as="geometry"/>
                </mxCell>
                <mxCell id="11" value="+Text" style="text;html=1;strokeColor=none;fillColor=none;align=center;verticalAlign=middle;whiteSpace=wrap;rounded=0;" vertex="1" parent="1">
                    <mxGeometry x="355" y="930" width="60" height="30" as="geometry"/>
                </mxCell>
                <mxCell id="12" value="+Text" style="text;html=1;strokeColor=none;fillColor=none;align=center;verticalAlign=middle;whiteSpace=wrap;rounded=0;" vertex="1" parent="1">
                    <mxGeometry x="570" y="930" width="60" height="30" as="geometry"/>
                </mxCell>
            </root>
        </mxGraphModel>
    </diagram>
</mxfile>